<?xml version="1.0" standalone="no"?>
<!DOCTYPE svg PUBLIC "-//W3C//DTD SVG 20010904//EN"
 "http://www.w3.org/TR/2001/REC-SVG-20010904/DTD/svg10.dtd">
<svg version="1.0" xmlns="http://www.w3.org/2000/svg"
 width="591.000000pt" height="645.000000pt" viewBox="0 0 591.000000 645.000000"
 preserveAspectRatio="xMidYMid meet">

<g transform="translate(0.000000,645.000000) scale(0.100000,-0.100000)"
fill="#000000" stroke="none">
<path d="M2221 6418 c-6 -7 -28 -13 -48 -13 -28 0 -41 -6 -57 -28 -19 -26 -21
-41 -20 -157 2 -126 11 -224 39 -410 32 -214 45 -376 48 -585 5 -272 34 -678
52 -722 16 -37 39 -43 55 -14 15 28 12 135 -5 216 -75 346 -58 582 48 693 64
67 118 78 202 38 78 -36 202 -193 273 -346 36 -78 41 -98 56 -240 9 -85 18
-191 22 -235 5 -82 13 -103 34 -90 15 9 6 169 -15 279 -7 39 -19 132 -25 206
-6 74 -19 160 -28 190 -8 30 -16 57 -16 60 -1 3 -22 48 -48 101 -61 124 -140
210 -210 227 -112 28 -191 7 -277 -73 l-49 -46 -6 28 c-10 48 -8 294 2 395 6
56 7 123 2 155 -9 69 -4 204 11 290 6 35 9 70 5 78 -7 18 -28 19 -45 3z"/>
<path d="M3245 6137 c-56 -27 -99 -81 -109 -138 -5 -30 -2 -39 21 -61 32 -30
94 -58 129 -58 27 0 40 33 30 80 -4 22 -2 30 8 30 8 0 24 8 36 18 18 15 21 24
15 51 -6 30 -58 101 -74 101 -3 0 -29 -11 -56 -23z"/>
<path d="M1328 6093 c-15 -2 -81 -31 -145 -64 -65 -33 -136 -64 -158 -70 -45
-12 -102 -67 -112 -107 -6 -27 -31 -72 -44 -82 -19 -13 -77 -110 -92 -150 -9
-25 -23 -64 -32 -88 -8 -24 -18 -67 -20 -95 -3 -29 -8 -68 -11 -87 -7 -40 -6
-203 1 -240 3 -14 8 -41 11 -60 3 -19 17 -64 31 -98 13 -35 25 -72 26 -82 1
-10 4 -17 8 -14 15 9 19 -15 8 -40 -10 -21 -9 -29 4 -44 28 -31 29 -108 4
-222 l-23 -105 -42 -20 c-42 -20 -59 -45 -47 -66 4 -6 16 -9 26 -6 29 8 23
-12 -13 -47 -38 -36 -75 -103 -64 -113 4 -4 25 2 47 14 l39 21 0 -23 c0 -13
-5 -36 -11 -52 -6 -15 -15 -57 -19 -93 -16 -118 -31 -170 -66 -221 -19 -28
-34 -59 -34 -69 0 -25 22 -40 48 -34 32 9 124 -71 116 -101 -5 -19 5 -27 73
-63 43 -22 95 -43 116 -47 59 -11 60 -20 1 -258 -13 -54 -30 -118 -39 -143
-20 -59 -19 -65 8 -59 32 8 49 -15 49 -66 -1 -27 -8 -49 -21 -63 -12 -12 -21
-33 -21 -47 2 -105 -11 -272 -25 -312 -9 -26 -13 -52 -10 -57 3 -5 26 -12 51
-16 25 -3 47 -12 49 -18 15 -48 25 -330 15 -417 -3 -25 -3 -59 2 -74 4 -16 4
-32 0 -35 -4 -3 -7 -30 -7 -60 l0 -55 -75 -25 c-104 -36 -162 -69 -168 -98 -2
-14 33 -88 46 -96 5 -3 54 6 108 20 67 17 132 26 201 28 62 1 107 7 116 15 9
7 18 8 21 3 9 -16 135 -25 151 -12 10 8 32 7 89 -4 113 -24 140 -22 170 15 29
34 32 48 14 70 -26 31 -131 76 -216 94 -18 4 -30 10 -27 15 3 4 1 18 -3 31 -5
13 -5 39 -1 59 6 27 5 38 -7 47 -13 9 -15 47 -15 249 0 130 4 240 8 244 4 4
40 15 78 25 77 20 125 43 125 61 0 15 -47 209 -61 252 -46 143 -56 268 -26
330 11 24 -1 133 -28 237 -8 31 -18 80 -21 110 -7 53 -6 55 22 66 16 6 64 19
108 29 43 10 83 23 88 28 6 6 -7 23 -36 48 l-46 38 35 33 c18 17 47 39 64 47
37 20 48 51 27 75 -27 29 -49 339 -32 446 4 22 11 69 17 105 6 36 9 95 8 132
-2 77 4 89 61 108 46 15 105 74 168 166 76 113 92 186 42 192 -19 2 -40 -12
-85 -54 -33 -31 -92 -81 -131 -110 l-70 -54 -39 20 c-22 11 -50 20 -63 20 -46
0 -106 -45 -113 -84 -5 -24 -39 -34 -147 -42 -74 -5 -92 -3 -168 22 -62 21
-84 33 -84 45 0 10 -5 21 -10 24 -6 4 -22 24 -35 46 -31 49 -65 71 -121 79
-33 5 -47 3 -52 -7 -12 -21 -41 48 -52 125 -12 84 -12 219 -1 297 5 33 14 94
20 135 17 115 65 204 154 284 81 73 138 116 187 141 30 16 41 16 101 5 88 -17
161 -10 231 23 74 33 92 66 58 102 -41 44 -153 64 -262 48z m-356 -1192 c32
-12 73 -53 80 -78 4 -14 -4 -33 -24 -57 -32 -39 -59 -50 -34 -14 9 12 16 28
16 35 0 25 -21 13 -42 -24 -12 -20 -24 -31 -26 -25 -2 7 11 33 28 58 23 35 28
50 20 58 -9 8 -20 2 -43 -24 -18 -20 -45 -47 -61 -60 l-28 -25 16 40 c9 21 23
47 31 55 15 16 21 50 9 50 -4 0 -24 -19 -46 -42 -32 -35 -36 -37 -18 -11 24
37 67 73 86 73 7 0 23 -4 36 -9z m689 -90 c11 -2 52 -84 55 -108 4 -36 -11
-27 -31 17 -17 38 -35 53 -35 29 0 -6 -6 -9 -12 -6 -7 2 -23 1 -34 -4 -19 -7
-21 -13 -17 -57 3 -32 0 -53 -7 -57 -27 -17 -46 74 -30 136 14 50 41 63 111
50z m-778 -111 c3 -12 14 -20 26 -20 20 0 20 0 -3 -64 -13 -35 -26 -80 -30
-100 -5 -25 -14 -40 -29 -45 -12 -5 -23 -7 -25 -6 -2 2 4 31 12 65 9 34 16 88
16 119 0 32 3 61 7 64 11 12 21 8 26 -13z m801 -49 c-8 -8 -23 14 -29 44 l-6
30 20 -35 c10 -19 17 -37 15 -39z m-45 -4 c1 -5 -3 -5 -9 -2 -5 3 -10 16 -9
28 0 21 1 21 9 2 5 -11 9 -24 9 -28z m-594 -6 c28 -10 89 -27 138 -36 48 -10
86 -19 85 -21 -5 -5 -192 14 -210 21 -14 5 -18 2 -18 -13 0 -12 5 -24 10 -27
14 -9 12 -21 -2 -23 -7 0 -40 -5 -72 -11 -33 -6 -62 -9 -64 -6 -8 8 27 91 49
113 24 27 22 27 84 3z m568 -49 c-2 -10 4 -34 15 -53 11 -19 22 -51 25 -71 5
-36 5 -37 -19 -26 -13 6 -23 18 -22 27 2 12 -9 17 -47 22 -27 4 -63 12 -80 19
-36 14 -97 51 -93 56 7 6 143 27 170 25 15 -1 29 3 33 9 10 17 23 11 18 -8z
m95 -91 c-6 -129 -22 -174 -24 -67 -1 45 -8 84 -18 103 -26 51 -22 73 15 73
l32 0 -5 -109z m-412 -144 c11 -33 26 -63 32 -65 6 -2 19 13 29 32 21 45 35
45 59 1 20 -38 33 -40 50 -7 10 21 12 21 27 -15 9 -21 21 -51 27 -67 7 -18 15
-26 25 -23 9 4 16 -2 20 -16 3 -12 11 -32 17 -44 12 -25 -17 -96 -87 -209 -35
-55 -55 -76 -93 -97 -28 -15 -55 -27 -62 -27 -7 0 -28 -7 -47 -17 -33 -15 -35
-19 -29 -53 6 -37 5 -38 -32 -44 -20 -3 -45 -6 -54 -6 -25 0 -23 37 2 52 32
20 25 41 -11 33 -24 -6 -34 -3 -44 13 -10 13 -31 21 -66 25 -80 10 -166 75
-205 157 -20 40 -43 140 -44 186 0 19 6 34 14 37 8 3 33 34 55 69 40 61 41 62
41 31 0 -18 3 -33 7 -33 3 0 30 18 60 40 29 23 58 38 63 35 6 -4 27 4 47 16
25 16 38 19 41 11 7 -21 35 -13 82 23 25 18 47 31 50 29 3 -3 14 -33 26 -67z
m354 13 c0 -5 -2 -10 -4 -10 -3 0 -8 5 -11 10 -3 6 -1 10 4 10 6 0 11 -4 11
-10z m27 -70 c-1 -12 -5 -16 -10 -11 -5 5 -6 14 -3 20 11 16 15 13 13 -9z
m-895 -112 c-15 -15 -26 -4 -18 18 5 13 9 15 18 6 9 -9 9 -15 0 -24z m7 -108
c1 -12 -1 -12 -14 0 -9 10 -12 24 -8 40 l7 25 7 -25 c4 -14 7 -32 8 -40z m866
11 c-3 -6 -15 -16 -27 -22 -16 -9 -19 -8 -15 3 2 7 10 12 16 10 6 -1 14 5 18
13 3 9 8 14 10 11 3 -3 2 -9 -2 -15z m-878 -51 c28 0 29 -16 6 -123 l-17 -78
41 -41 41 -41 -25 -38 c-25 -38 -26 -38 -54 -24 -15 8 -32 21 -36 28 -18 29
-66 57 -87 51 l-21 -6 21 23 c11 13 27 35 36 49 23 38 57 140 47 140 -10 0
-12 40 -3 65 5 12 10 13 17 6 6 -6 21 -11 34 -11z m917 -67 c4 -48 10 -100 13
-114 4 -20 1 -28 -13 -33 -11 -3 -37 -23 -59 -45 l-40 -38 -32 24 -32 25 35
52 c21 32 39 77 47 115 10 45 20 68 38 82 13 10 27 19 30 19 3 0 9 -39 13 -87z
m-108 -7 c-3 -18 -10 -46 -16 -62 -16 -41 -61 -98 -69 -86 -8 14 -45 19 -46 7
-1 -20 -28 -59 -62 -90 -25 -23 -32 -35 -23 -40 15 -9 55 12 92 48 16 16 35
27 43 23 8 -3 46 -29 85 -58 l70 -53 -99 -24 c-113 -27 -113 -27 -105 -122 6
-65 -8 -98 -32 -79 -9 8 -15 6 -23 -7 -10 -17 -10 -17 -11 0 0 9 -4 17 -9 17
-13 0 -32 -26 -24 -33 3 -4 -1 -7 -10 -7 -10 0 -14 5 -11 14 4 11 -1 14 -18
13 -12 0 -25 -4 -28 -8 -3 -4 -30 -4 -60 1 -30 4 -48 8 -40 9 8 2 33 5 55 7
41 5 74 24 42 24 -11 0 -17 6 -15 16 4 21 -24 39 -46 31 -9 -4 -16 -14 -16
-24 -1 -22 -65 -64 -85 -57 -13 6 -20 -6 -16 -28 0 -5 -3 -8 -9 -8 -5 0 -10 7
-10 15 0 19 -19 20 -26 1 -5 -12 -9 -11 -23 3 -14 14 -17 27 -11 57 10 61 -11
90 -73 98 -49 7 -140 46 -152 66 -7 11 48 91 84 124 20 18 21 18 73 -14 29
-18 71 -47 94 -65 24 -20 45 -30 53 -26 15 9 -47 68 -118 112 -27 16 -52 36
-55 44 -3 8 -15 15 -26 15 -12 0 -19 -4 -16 -9 3 -5 0 -14 -7 -20 -10 -8 -22
-2 -49 27 l-37 37 12 58 12 59 22 -39 c44 -78 143 -153 203 -153 41 0 83 -41
82 -80 l-1 -33 77 7 c42 3 91 10 107 14 29 8 29 9 9 20 -12 6 -24 23 -26 37
-5 23 -1 26 62 45 57 17 75 28 121 77 30 32 65 75 79 95 14 21 26 38 28 38 2
0 1 -15 -2 -34z m-406 -598 c0 -5 -4 -8 -10 -8 -5 0 -10 10 -10 23 0 18 2 19
10 7 5 -8 10 -18 10 -22z m61 -2 c8 4 32 9 54 11 37 3 39 2 21 -12 -21 -16
-116 -21 -116 -7 0 16 14 22 21 11 4 -7 12 -8 20 -3z m241 -10 c5 -9 12 -53
14 -96 l4 -79 -47 -27 c-27 -15 -55 -33 -63 -40 -16 -13 -99 -39 -114 -35 -4
1 -13 -2 -20 -7 -17 -14 -174 -8 -236 8 -76 20 -80 25 -59 80 9 25 23 80 29
123 7 43 16 73 20 67 6 -9 9 -9 14 -1 4 6 12 9 17 6 5 -4 9 0 9 7 0 10 2 10 9
-1 6 -10 10 -10 16 -1 6 9 10 9 16 -1 7 -11 9 -11 9 1 0 13 1 13 10 0 6 -10
10 -11 10 -2 0 7 7 5 19 -7 47 -47 151 -45 202 3 19 18 34 22 78 21 39 -1 56
-6 63 -19z m3 -281 l0 -49 -85 -19 c-56 -12 -130 -19 -220 -20 -145 -1 -180 8
-180 44 0 18 4 20 25 15 14 -4 70 -11 123 -16 76 -7 101 -6 117 4 11 7 36 17
55 21 38 8 127 52 136 67 14 22 29 -2 29 -47z m-17 -136 c-15 -4 -55 -9 -88
-13 -58 -7 -60 -6 -60 16 0 22 7 25 83 38 l82 15 5 -25 c5 -21 1 -26 -22 -31z
m-343 17 c22 -1 39 -4 38 -8 -2 -5 -3 -13 -3 -19 0 -8 -18 -9 -57 -5 -92 11
-113 17 -113 32 0 12 9 14 47 8 26 -4 66 -7 88 -8z m95 -66 c63 0 149 4 190
10 41 5 78 10 83 10 11 0 23 -36 47 -148 11 -56 27 -114 35 -129 20 -37 19
-53 -3 -53 -10 0 -68 -16 -128 -35 -60 -19 -123 -38 -140 -41 l-31 -6 -6 78
c-13 154 -11 176 26 209 29 26 30 29 12 33 -12 3 -26 -5 -38 -19 l-19 -24 -23
29 c-12 15 -30 26 -39 24 -14 -3 -13 -9 10 -42 26 -38 27 -44 25 -165 -1 -69
-3 -127 -4 -128 -2 -1 -20 2 -42 8 -22 5 -71 14 -110 20 -140 21 -136 20 -131
38 34 121 56 215 56 242 0 19 3 50 6 70 l6 36 52 -9 c28 -5 103 -8 166 -8z
m-78 -421 c10 -6 19 -26 23 -52 7 -54 0 -385 -9 -394 -3 -4 -21 -12 -39 -19
-17 -6 -39 -14 -48 -18 -23 -10 -31 49 -23 172 l7 98 46 -1 c81 0 54 27 -36
37 -7 1 -13 4 -13 7 0 3 -3 48 -6 99 l-5 92 43 -6 c24 -4 51 -11 60 -15z m231
-233 c-1 -168 -5 -251 -13 -256 -22 -14 -71 2 -80 26 -5 13 -8 121 -6 240 2
167 6 218 17 224 7 5 16 7 20 4 4 -2 11 1 14 6 4 6 17 10 28 8 22 -3 22 -4 20
-252z m-132 42 c1 -101 1 -192 1 -203 -3 -63 -2 -167 2 -215 l5 -55 -20 50
c-17 44 -20 85 -26 328 l-6 277 21 0 c22 0 22 -3 23 -182z m159 -328 c0 -5 -4
-10 -10 -10 -5 0 -10 5 -10 10 0 6 5 10 10 10 6 0 10 -4 10 -10z m-260 -50
c-8 -5 -22 -9 -30 -9 -10 0 -8 3 5 9 27 12 43 12 25 0z m257 -4 c7 -6 -2 -8
-57 -8 -52 0 -62 1 -57 10 6 8 105 7 114 -2z m-192 -59 c4 -18 5 -53 3 -77
l-3 -45 -60 -2 c-33 0 -96 -9 -140 -18 -169 -36 -176 -36 -194 -2 -15 27 -15
29 8 48 24 20 24 20 43 -1 10 -11 26 -20 35 -20 14 0 14 2 -1 25 -9 13 -16 27
-16 30 0 11 23 4 47 -15 14 -11 30 -20 34 -20 13 0 11 28 -3 32 -6 2 -8 9 -4
16 5 9 15 6 36 -9 17 -13 35 -19 46 -15 16 6 16 8 -1 26 -15 16 -16 23 -6 33
17 17 100 45 138 46 29 1 33 -3 38 -32z m200 2 c4 -5 17 -9 31 -9 20 0 24 -5
24 -30 0 -35 14 -39 32 -10 18 28 28 25 28 -9 0 -39 18 -49 30 -17 11 31 30
34 30 7 0 -27 17 -35 28 -14 9 14 13 15 26 4 20 -16 21 -45 2 -60 -18 -15
-128 -4 -191 20 -60 23 -55 22 -55 4 0 -11 -12 -15 -50 -15 -60 0 -72 16 -63
87 l5 50 59 1 c32 0 61 -3 64 -9z"/>
<path d="M1101 4221 c-16 -29 -13 -58 6 -65 23 -9 35 6 36 45 2 39 -25 52 -42
20z"/>
<path d="M1236 4225 c-34 -34 -9 -99 28 -72 12 9 17 23 14 47 -4 39 -19 48
-42 25z"/>
<path d="M1467 4163 c-23 -4 -27 -8 -22 -24 13 -40 -83 -151 -165 -192 -59
-29 -156 -35 -219 -12 -53 18 -61 19 -61 2 0 -19 37 -34 113 -47 68 -12 121
-4 182 28 47 24 160 139 180 182 12 27 25 40 37 40 11 0 18 5 16 13 -5 14 -20
16 -61 10z"/>
<path d="M1147 4132 c-47 -51 19 -124 68 -76 12 12 13 20 5 28 -8 8 -13 7 -19
-3 -11 -17 -41 -7 -41 14 0 8 11 20 25 25 14 5 25 14 25 20 0 17 -46 11 -63
-8z"/>
<path d="M1294 2297 c-7 -20 2 -37 21 -37 22 0 24 14 4 34 -16 17 -19 17 -25
3z"/>
<path d="M3102 5869 c-30 -11 -44 -48 -52 -139 -4 -41 -13 -116 -19 -167 -8
-69 -8 -99 0 -120 8 -19 13 -177 17 -498 2 -270 8 -478 14 -488 8 -15 12 -16
25 -6 13 11 14 42 8 228 -5 143 -3 255 4 331 7 63 14 141 16 172 2 32 8 81 14
110 6 29 22 109 36 177 20 97 34 141 65 197 22 40 40 81 40 91 0 11 -17 35
-37 55 -47 46 -100 69 -131 57z"/>
<path d="M3342 5530 c-44 -27 -53 -55 -34 -105 12 -32 14 -83 11 -260 -6 -351
-2 -535 13 -580 11 -34 19 -41 49 -49 51 -12 88 -1 100 32 7 17 9 153 8 372
-2 309 -1 351 15 398 21 61 51 85 130 102 46 10 54 8 99 -15 53 -27 80 -23 92
15 10 31 -10 56 -67 80 -76 33 -173 16 -252 -45 l-44 -34 -7 42 c-4 23 -12 48
-17 55 -15 18 -59 15 -96 -8z"/>
<path d="M4184 5463 c-35 -7 -143 -124 -227 -246 -33 -49 -87 -219 -87 -275 0
-51 32 -188 55 -233 24 -48 77 -102 165 -167 114 -85 176 -86 276 -6 83 66
177 148 201 174 40 45 73 143 73 218 0 164 -127 381 -217 370 -41 -4 -44 -48
-6 -77 81 -62 92 -75 114 -134 32 -90 30 -163 -9 -257 -40 -95 -100 -170 -152
-192 -80 -33 -203 -45 -236 -23 -33 21 -72 94 -72 134 -1 19 -5 37 -10 40 -14
9 -12 168 3 246 12 65 56 183 78 213 5 7 41 33 78 58 71 47 89 68 89 103 0 46
-46 68 -116 54z"/>
<path d="M1826 4489 c-13 -37 -37 -181 -32 -187 14 -13 28 20 42 98 9 55 11
87 4 94 -6 6 -11 4 -14 -5z"/>
<path d="M1850 4374 c-23 -53 -24 -64 -10 -64 10 0 50 81 50 101 0 24 -21 4
-40 -37z"/>
<path d="M1886 4332 c-3 -5 -8 -28 -12 -52 -6 -34 -4 -42 7 -38 16 5 31 79 19
91 -4 5 -10 5 -14 -1z"/>
<path d="M3305 4160 c-2 -4 -33 -11 -67 -15 -62 -8 -76 -11 -80 -14 -2 -2 -14
-4 -27 -7 -106 -19 -243 -164 -293 -309 -9 -27 -20 -76 -24 -108 -4 -36 -12
-61 -21 -64 -10 -4 -11 -9 -2 -19 8 -10 0 -30 -34 -86 -24 -40 -47 -84 -52
-96 l-7 -24 -23 22 c-13 12 -41 57 -62 99 -36 73 -38 82 -43 203 -6 128 -15
158 -49 158 -9 0 -23 15 -32 33 -17 36 -59 51 -59 21 0 -16 -1 -16 -18 -1 -24
22 -39 21 -47 -2 -3 -11 -12 -18 -19 -15 -25 9 -37 -20 -23 -57 6 -19 15 -36
18 -39 7 -6 29 -47 29 -54 0 -3 -11 -1 -25 4 -64 24 -74 -25 -12 -65 23 -15
55 -39 71 -54 28 -25 136 -239 139 -273 1 -10 4 -18 8 -18 3 0 19 -18 35 -41
23 -34 26 -44 16 -60 -11 -17 -9 -19 12 -19 28 0 61 -44 58 -76 -3 -23 19 -37
43 -28 20 8 125 -56 125 -75 0 -8 -10 -26 -22 -39 -13 -14 -16 -21 -8 -17 13
8 13 6 1 -8 -16 -20 -20 -19 114 -45 76 -15 228 -67 252 -86 1 -1 -9 -36 -23
-77 -23 -67 -32 -125 -70 -446 l-7 -51 49 -24 c47 -22 49 -24 46 -63 -4 -57
-4 -106 2 -305 2 -96 5 -199 5 -228 1 -74 30 -102 103 -102 29 1 71 4 94 9
l41 8 18 -61 c9 -34 28 -95 41 -136 13 -41 24 -87 24 -102 0 -15 18 -96 40
-180 22 -84 40 -166 40 -181 0 -15 6 -40 14 -55 17 -33 9 -57 -33 -97 l-31
-29 1 144 c2 159 -4 185 -51 227 -70 63 -166 70 -237 17 -38 -29 -43 -29 -43
-6 0 10 -7 28 -16 40 -20 29 -59 21 -98 -20 -24 -26 -27 -36 -21 -67 32 -174
36 -282 23 -641 -3 -79 -1 -85 18 -88 11 -2 29 7 40 19 17 19 19 39 22 188 4
262 29 368 107 446 49 48 90 68 126 60 54 -12 61 -36 70 -246 4 -105 11 -194
14 -197 4 -4 16 -7 26 -7 18 0 20 -9 24 -110 8 -228 59 -304 225 -340 83 -19
168 -19 202 -1 l26 14 7 -47 c9 -69 15 -81 36 -81 23 0 21 -10 21 165 0 114 6
175 33 330 18 105 43 217 55 250 12 33 28 96 35 140 7 44 15 89 18 100 3 11
13 47 23 80 9 33 20 78 25 100 16 76 27 110 47 162 l21 52 -21 15 c-12 9 -20
17 -17 19 23 19 139 75 142 70 3 -5 8 -28 12 -53 10 -69 35 -139 53 -149 20
-11 53 3 72 32 22 33 23 226 3 295 -9 30 -21 56 -28 58 -13 5 -125 -42 -125
-53 0 -5 -10 -9 -23 -10 -19 -1 -102 -37 -177 -77 -14 -8 -59 -24 -100 -37
-60 -19 -84 -33 -118 -68 -35 -36 -47 -43 -60 -34 -9 5 -37 69 -62 142 -44
129 -44 133 -25 144 37 20 87 81 112 136 l24 54 -21 21 c-11 12 -20 26 -20 29
0 4 -17 29 -37 56 -58 74 -115 165 -151 241 -24 48 -27 70 -13 70 5 0 16 12
23 28 14 27 8 58 -18 107 -6 11 -14 36 -18 55 -6 32 -36 256 -36 273 0 4 11 7
25 7 16 0 25 -6 25 -15 0 -8 4 -15 8 -15 4 0 36 -18 71 -41 67 -43 85 -44 102
-5 l12 25 34 -26 c19 -15 55 -54 81 -87 25 -34 76 -97 112 -141 37 -44 75 -95
84 -113 9 -18 20 -30 25 -28 4 3 9 -17 10 -44 2 -70 19 -153 33 -161 17 -11
26 -3 42 34 10 21 15 26 15 14 1 -10 11 -41 22 -68 24 -54 49 -62 59 -19 4 17
8 21 14 12 13 -21 36 -14 36 13 0 15 6 25 14 25 26 0 28 20 6 55 -12 19 -17
35 -11 35 6 0 11 11 11 24 0 33 -70 119 -122 150 -24 14 -61 47 -83 73 -22 26
-58 68 -81 93 -22 25 -52 58 -65 74 -45 56 -133 150 -165 178 -27 24 -31 33
-25 56 13 49 5 56 -102 91 -191 62 -222 73 -253 91 -17 10 -46 21 -63 25 -23
5 -31 12 -31 28 0 12 -3 32 -6 44 -5 19 4 26 81 63 97 46 174 114 199 174 8
20 19 36 25 36 5 0 23 12 40 26 l30 25 7 -26 c4 -15 17 -49 30 -76 13 -27 24
-53 24 -59 0 -5 5 -10 10 -10 11 0 8 58 -4 78 -4 7 -2 12 6 12 8 0 38 -52 67
-115 30 -64 58 -118 63 -121 23 -14 18 10 -12 67 -22 43 -29 64 -21 70 6 5 9
7 7 3 -2 -3 2 -13 10 -22 8 -9 23 -28 34 -42 14 -19 21 -22 30 -14 9 9 7 16
-8 30 -14 14 -132 217 -132 228 0 1 42 -40 94 -91 52 -51 99 -93 106 -93 9 0
10 3 1 13 -6 8 -9 16 -6 19 3 3 -3 11 -12 19 -16 13 -17 12 -4 -3 21 -27 9
-21 -20 10 l-26 28 23 -1 c13 -1 32 -9 42 -18 22 -20 37 -11 19 11 -9 13 -9
14 1 8 7 -4 12 -2 12 6 0 7 -40 42 -88 78 -48 35 -91 68 -97 72 -38 29 -85 71
-81 75 2 2 32 -13 67 -34 119 -72 200 -115 207 -108 10 9 -33 42 -98 75 -103
52 -222 128 -211 135 8 4 8 12 0 27 -8 15 -14 17 -22 9 -8 -8 -18 7 -39 54
-15 36 -42 87 -60 113 -45 66 -125 145 -137 137 -6 -3 -11 -2 -11 4 0 5 -8 8
-17 7 -30 -5 -87 15 -100 34 -20 28 -114 59 -177 59 -31 -1 -58 -5 -61 -9z
m-155 -70 c-8 -5 -22 -10 -30 -10 -13 0 -13 1 0 10 8 5 22 10 30 10 13 0 13
-1 0 -10z m147 4 c-3 -3 -12 -4 -19 -1 -8 3 -5 6 6 6 11 1 17 -2 13 -5z m-97
-23 c0 -5 -10 -11 -22 -14 -22 -6 -22 -6 -4 8 23 17 26 18 26 6z m-51 -15 c-2
-2 -15 -9 -29 -15 -24 -11 -24 -11 -6 3 16 13 49 24 35 12z m161 -14 c-19 -1
-44 -7 -55 -12 -11 -5 -38 -14 -60 -20 -22 -7 -60 -23 -84 -36 -24 -13 -48
-24 -54 -24 -6 0 -18 -6 -27 -12 -9 -7 2 4 25 24 37 35 138 83 153 74 4 -2 17
1 29 8 13 6 41 9 65 7 43 -5 43 -6 8 -9z m-276 -11 c3 -5 -1 -11 -9 -15 -9 -3
-15 0 -15 9 0 16 16 20 24 6z m266 -37 c0 -9 -6 -14 -13 -11 -7 3 -21 -1 -32
-9 -10 -8 -26 -14 -35 -14 -8 0 -48 -16 -88 -35 -40 -19 -72 -32 -72 -29 0 3
-23 -13 -52 -35 -52 -42 -76 -48 -42 -10 42 47 184 122 270 143 32 8 60 15 62
15 1 1 2 -6 2 -15z m103 -46 c-3 -6 -14 -8 -24 -5 -11 3 -26 -1 -33 -9 -8 -7
-36 -19 -63 -25 -26 -6 -91 -26 -143 -45 -109 -39 -137 -43 -100 -14 14 11 34
23 45 26 11 3 44 17 74 31 30 13 79 30 110 38 63 15 143 17 134 3z m367 -31
c4 1 15 -14 24 -34 17 -36 17 -36 -28 13 -25 27 -45 54 -45 59 0 6 9 -1 21
-15 11 -14 24 -24 28 -23z m-1345 -29 c8 -18 18 -49 21 -70 7 -38 17 -48 29
-28 4 7 17 0 32 -16 19 -21 27 -44 33 -93 9 -70 81 -231 119 -265 19 -18 19
-18 -1 -52 -11 -19 -23 -34 -27 -34 -13 0 -99 164 -106 203 -4 20 -11 37 -17
37 -5 0 -7 3 -5 8 10 15 -80 118 -131 151 -29 19 -50 36 -48 38 2 3 26 -5 52
-16 50 -23 77 -16 50 12 -20 20 -20 31 -1 23 21 -8 19 17 -4 62 -10 20 -22 48
-26 61 -10 33 10 19 30 -21z m60 -66 c-5 -5 -25 69 -24 88 0 8 7 -7 14 -35 8
-27 12 -51 10 -53z m1276 47 c22 -23 39 -47 39 -53 0 -6 -9 0 -19 13 -10 13
-23 21 -28 18 -6 -4 -17 1 -24 11 -13 15 -12 16 4 3 24 -19 21 -2 -5 26 -12
13 -18 23 -14 23 5 0 26 -19 47 -41z m-323 26 c-7 -7 -156 -45 -203 -51 -22
-3 -58 -10 -80 -15 -63 -14 -65 -9 -5 12 76 28 84 30 180 44 102 15 115 16
108 10z m-1058 -40 c12 -19 20 -40 18 -46 -2 -5 -13 10 -26 35 -26 55 -22 60
8 11z m161 -75 c-3 -11 -7 -8 -11 10 -4 14 -4 32 -1 40 3 11 7 8 11 -10 4 -14
4 -32 1 -40z m1039 35 c0 -8 18 -26 40 -40 23 -14 62 -42 87 -61 56 -42 118
-75 127 -67 3 4 6 1 6 -6 0 -7 -9 -9 -24 -5 -39 9 -40 -14 -1 -30 26 -11 35
-21 35 -39 0 -32 -17 -45 -63 -50 -45 -4 -57 -15 -36 -30 24 -18 5 -71 -44
-120 -40 -41 -65 -56 -187 -108 -30 -13 -64 -34 -75 -47 -11 -12 -34 -25 -51
-28 -27 -5 -37 0 -76 40 -26 26 -55 46 -67 46 -58 0 -140 61 -208 152 -74 102
-95 166 -69 216 9 17 16 39 16 49 0 16 13 18 143 19 111 1 162 7 232 24 112
28 209 75 201 96 -3 9 -1 12 4 9 6 -3 10 -13 10 -20z m-219 -1 c-37 -17 -201
-29 -201 -15 0 7 138 27 205 29 l30 0 -34 -14z m-371 -14 c-24 -15 -36 -11
-14 4 10 8 21 12 24 10 2 -3 -2 -9 -10 -14z m765 0 c10 -11 16 -20 13 -20 -3
0 -13 9 -23 20 -10 11 -16 20 -13 20 3 0 13 -9 23 -20z m-833 -12 c-7 -7 -12
-8 -12 -2 0 6 3 14 7 17 3 4 9 5 12 2 2 -3 -1 -11 -7 -17z m874 -70 c11 -10
26 -18 32 -18 7 0 12 -5 12 -11 0 -5 -10 -9 -22 -7 -21 3 -54 28 -127 96 l-36
33 60 -37 c33 -21 69 -46 81 -56z m-653 75 c-7 -2 -19 -2 -25 0 -7 3 -2 5 12
5 14 0 19 -2 13 -5z m677 -3 c0 -5 -2 -10 -4 -10 -3 0 -8 5 -11 10 -3 6 -1 10
4 10 6 0 11 -4 11 -10z m-806 -25 c14 -20 69 -25 141 -13 73 11 206 15 197 6
-5 -5 -55 -15 -112 -24 -126 -19 -235 -12 -250 16 -15 28 5 41 24 15z m-64
-17 c-1 -7 -17 -31 -36 -53 l-35 -39 17 39 c18 45 32 65 45 65 5 0 9 -6 9 -12z
m917 -34 c-3 -3 -12 -4 -19 -1 -8 3 -5 6 6 6 11 1 17 -2 13 -5z m-924 -206 c7
-25 3 -33 -12 -23 -13 8 -15 45 -2 45 5 0 11 -10 14 -22z m-113 -67 c-5 -35
-12 -66 -16 -70 -6 -6 3 89 13 122 10 37 12 10 3 -52z m58 -29 c1 -37 7 -93
13 -125 12 -66 5 -86 -21 -62 -15 13 -17 29 -13 113 4 88 10 142 16 142 1 0 3
-30 5 -68z m1257 38 c10 -11 16 -20 13 -20 -3 0 -13 9 -23 20 -10 11 -16 20
-13 20 3 0 13 -9 23 -20z m-1157 -37 c12 -14 20 -29 17 -34 -4 -5 -1 -9 4 -9
6 0 11 -6 11 -12 1 -16 127 -104 161 -113 21 -5 55 -10 97 -14 8 -1 12 -18 12
-49 0 -52 -7 -67 -24 -53 -6 5 -31 14 -54 21 -24 6 -76 26 -115 45 -40 18 -93
42 -118 53 -43 18 -46 22 -52 67 -4 26 -7 67 -7 90 0 40 2 43 23 37 12 -3 32
-16 45 -29z m-256 -25 c-7 -7 -12 -8 -12 -2 0 6 3 14 7 17 3 4 9 5 12 2 2 -3
-1 -11 -7 -17z m-52 -49 l-21 -40 22 3 c12 2 24 -3 27 -11 3 -9 0 -12 -10 -9
-11 5 -14 0 -10 -18 6 -32 -2 -30 -28 6 l-21 29 27 41 c34 51 40 51 14 -1z
m91 -32 c-8 -8 -11 -7 -11 4 0 20 13 34 18 19 3 -7 -1 -17 -7 -23z m52 -14
c-4 -10 -9 -11 -16 -4 -5 5 -7 18 -3 28 6 14 9 15 16 4 4 -8 6 -21 3 -28z
m-52 -30 c1 -10 1 -31 0 -48 0 -16 2 -24 5 -17 3 6 12 12 19 12 7 0 16 8 18
18 4 13 5 11 6 -5 1 -20 32 -63 46 -63 3 0 5 12 5 28 0 19 3 23 9 13 9 -14 -4
-67 -19 -76 -4 -2 -27 9 -51 25 -24 16 -52 30 -61 30 -12 0 -18 8 -18 25 0 48
38 102 41 58z m307 -100 c65 -32 125 -59 133 -61 8 -2 21 -10 30 -18 22 -20
91 -20 174 0 92 23 132 16 248 -39 52 -25 99 -45 105 -45 8 0 152 -58 159 -64
3 -3 -44 -152 -54 -170 -8 -14 -17 -10 -67 29 -33 25 -70 48 -83 51 -13 4 -30
15 -37 26 -10 13 -21 18 -34 14 -17 -6 -19 -12 -11 -44 25 -116 59 -382 43
-344 -10 22 -20 12 -22 -23 -2 -19 2 -35 8 -35 5 0 10 8 10 17 0 26 11 8 20
-32 7 -31 5 -38 -14 -50 -34 -23 -190 -74 -287 -94 -98 -21 -133 -18 -223 23
l-59 27 7 62 c3 34 9 91 11 127 3 36 9 83 13 105 6 34 11 40 32 39 14 -1 28 3
32 10 5 7 8 6 8 -4 0 -13 1 -13 10 0 6 9 10 10 10 3 0 -6 9 -11 20 -10 11 1
20 5 20 10 0 4 5 5 10 2 6 -4 8 -10 6 -14 -8 -13 62 -41 101 -41 35 0 123 35
123 49 0 8 65 6 79 -4 6 -3 11 -1 11 6 0 9 3 9 14 0 11 -9 15 -7 19 9 3 11 1
20 -4 20 -5 0 -9 6 -9 14 0 22 -70 19 -71 -2 0 -12 -3 -10 -9 5 -10 26 -39 21
-41 -6 0 -10 -2 -11 -6 -3 -2 6 -11 12 -18 12 -8 0 -19 9 -25 20 -6 11 -18 20
-27 20 -12 0 -13 3 -4 14 10 12 8 17 -9 26 -27 14 -54 5 -46 -15 7 -18 -54
-50 -103 -54 -7 -1 -11 -7 -7 -16 3 -8 1 -15 -3 -15 -5 0 -11 7 -15 15 -3 8
-10 15 -16 15 -5 0 -10 -7 -10 -15 0 -8 -4 -15 -10 -15 -5 0 -10 7 -10 15 0
21 -28 19 -33 -2 -2 -10 -2 -2 0 17 4 31 27 106 47 152 6 14 -3 22 -51 44 -98
44 -202 82 -207 76 -3 -2 -11 -1 -18 4 -7 6 -26 11 -43 13 -16 2 -31 4 -32 5
-5 4 82 196 89 196 4 0 61 -26 126 -57z m412 -3 c0 -34 -13 -40 -107 -47 -67
-5 -73 -4 -73 13 0 27 16 49 24 35 4 -6 26 -11 50 -11 32 0 48 6 66 25 27 29
40 24 40 -15z m721 -575 c47 -55 95 -114 107 -132 13 -18 28 -30 35 -27 7 2
22 -5 34 -16 12 -11 26 -20 31 -20 9 0 42 -43 42 -54 0 -2 -10 -2 -22 2 -17 4
-20 2 -15 -12 4 -9 3 -14 -2 -11 -22 13 -19 -16 5 -59 14 -25 23 -46 20 -46
-3 0 -15 18 -26 40 -11 22 -25 40 -30 40 -13 0 -13 -7 6 -69 8 -29 13 -58 11
-64 -2 -7 -12 16 -22 50 -27 94 -62 109 -66 28 -2 -47 -20 49 -19 102 1 39 -6
50 -92 151 -101 118 -119 139 -180 223 -23 31 -54 64 -69 74 -24 17 -26 22
-17 47 l10 28 87 -87 c47 -49 124 -133 172 -188z m-767 149 c25 -9 19 -24 -9
-24 -16 0 -25 6 -25 15 0 16 9 19 34 9z m-51 -67 c16 10 97 11 97 2 0 -15 -83
-31 -116 -23 -20 5 -21 8 -10 36 l11 31 3 -27 c2 -17 7 -24 15 -19z m-56 18
c0 -8 -4 -15 -9 -15 -4 0 -8 7 -8 15 0 8 4 15 8 15 5 0 9 -7 9 -15z m353 -359
c0 -18 -32 -38 -105 -63 -82 -29 -151 -41 -277 -49 -106 -6 -108 -5 -108 16 0
19 3 21 33 13 70 -18 272 10 304 43 9 8 24 13 34 11 10 -3 19 -2 21 2 3 6 74
38 91 40 4 1 7 -5 7 -13z m28 -58 c18 -18 15 -63 -5 -80 -22 -19 -107 -58
-126 -58 -8 0 -18 12 -21 28 -4 15 -9 35 -12 44 -4 13 4 20 33 28 21 6 54 19
73 29 44 24 44 23 58 9z m-321 -121 c7 -23 8 -46 4 -50 -5 -5 -51 -11 -103
-14 l-95 -6 -5 36 c-6 54 8 66 86 69 37 2 76 4 85 5 12 1 20 -10 28 -40z m387
-4 l14 -27 -69 -34 c-38 -19 -69 -38 -69 -43 0 -13 27 -111 39 -141 5 -15 19
-32 31 -38 31 -17 118 11 155 50 24 25 31 28 37 15 12 -21 -23 -84 -71 -128
-46 -41 -128 -82 -241 -120 -80 -27 -319 -61 -358 -50 -27 7 -42 39 -42 89 0
33 1 34 43 34 79 0 104 47 92 172 l-7 70 -59 -6 -59 -7 0 36 0 35 48 0 c26 0
101 7 167 14 119 14 227 48 285 89 34 23 47 21 64 -10z m-259 7 c3 -5 5 -10 3
-10 -2 0 -18 -4 -36 -9 -25 -8 -32 -7 -32 4 0 20 54 33 65 15z m331 -126 l39
-56 -36 -33 c-37 -34 -104 -54 -122 -36 -5 5 -18 33 -28 63 -14 41 -15 56 -6
67 13 15 84 50 103 51 6 0 29 -25 50 -56z m-551 -107 c4 -18 5 -52 3 -77 -3
-39 -6 -45 -32 -51 -48 -13 -60 1 -63 77 -2 75 3 84 54 84 28 0 33 -4 38 -33z
m507 -268 c10 -29 30 -89 43 -133 14 -43 30 -85 36 -92 20 -24 49 -16 97 27
56 49 97 71 175 93 56 16 60 16 73 -1 7 -10 14 -21 14 -24 0 -13 -26 -27 -65
-34 -51 -9 -75 -22 -75 -40 0 -8 -4 -15 -9 -15 -4 0 -37 -26 -72 -58 -81 -74
-108 -92 -135 -92 -27 0 -64 44 -64 76 0 12 -3 24 -8 26 -4 2 -16 23 -26 48
-23 56 -86 243 -83 246 14 11 64 33 71 31 5 -2 18 -28 28 -58z m698 26 c11
-28 18 -72 27 -155 3 -39 0 -67 -10 -93 -17 -40 -28 -45 -46 -23 -9 11 -9 19
1 36 11 19 10 24 -9 37 -28 19 -29 34 -3 51 27 17 25 32 -5 32 -22 0 -25 4
-25 39 0 22 -3 46 -6 54 -4 10 4 21 23 31 38 21 42 20 53 -9z m-820 -95 c15
-36 41 -95 58 -132 18 -37 32 -73 32 -80 0 -25 48 -115 65 -121 53 -21 86 -6
179 80 38 34 73 63 79 63 10 0 4 -290 -7 -350 -3 -14 -7 -38 -10 -55 -19 -119
-42 -215 -51 -215 -2 0 -21 10 -42 23 -31 18 -52 22 -113 21 -78 0 -99 10
-100 49 0 10 -9 27 -19 39 -25 26 -41 100 -41 189 0 81 -22 191 -55 269 -12
30 -32 98 -43 150 -11 52 -23 103 -27 112 -5 12 0 18 17 21 43 8 51 2 78 -63z
m720 34 c0 -7 -9 -14 -21 -17 -14 -4 -22 1 -28 16 -7 18 -4 23 13 28 21 5 36
-6 36 -27z m-840 -26 c6 -24 15 -56 20 -73 5 -16 12 -54 16 -83 4 -29 15 -70
25 -90 11 -20 19 -51 19 -69 0 -18 5 -33 10 -33 5 0 9 -3 8 -7 -2 -9 9 -123
19 -188 11 -76 10 -78 -26 -87 -45 -12 -61 -4 -61 29 0 16 -5 44 -11 63 -6 19
-16 67 -24 105 -8 39 -17 81 -21 95 l-7 25 26 -27 c38 -41 110 -53 77 -13 -7
8 -18 15 -25 15 -6 0 -20 9 -30 20 -10 12 -25 18 -32 16 -9 -4 -13 4 -13 25 0
17 -20 89 -45 161 -25 72 -44 132 -43 134 3 2 81 20 100 23 4 1 12 -18 18 -41z
m183 -745 l14 -37 -54 -22 c-65 -27 -130 -70 -145 -97 -7 -14 -13 -16 -21 -8
-17 17 9 58 80 128 88 86 104 91 126 36z m270 -141 c12 -10 12 -23 -1 -90 -11
-61 -20 -190 -22 -340 0 -22 -69 -44 -124 -39 -81 7 -108 16 -165 55 -62 43
-74 66 -73 142 1 73 11 96 72 163 83 91 160 129 247 124 28 -2 58 -9 66 -15z"/>
<path d="M3407 3622 c-21 -23 -21 -46 -1 -67 21 -21 44 -3 44 35 0 39 -22 55
-43 32z"/>
<path d="M3286 3615 c-18 -18 -20 -43 -6 -65 16 -25 45 1 45 40 0 38 -16 48
-39 25z"/>
<path d="M3787 3594 c-3 -3 -3 -12 -1 -19 3 -7 1 -16 -5 -20 -20 -12 -11 -22
19 -23 32 -1 38 14 20 49 -11 19 -22 24 -33 13z"/>
<path d="M3657 3525 c-33 -41 -123 -103 -192 -132 -47 -20 -131 -37 -202 -42
-7 -1 -13 -8 -13 -16 0 -32 166 -4 265 44 84 42 221 181 178 181 -5 0 -21 -16
-36 -35z"/>
<path d="M3303 3514 c-23 -35 -7 -59 38 -59 24 0 35 5 37 17 2 13 -1 16 -12
12 -9 -3 -23 -3 -32 0 -13 5 -14 9 -4 21 7 9 19 14 28 13 8 -2 17 3 19 10 3 8
-6 12 -26 12 -22 0 -35 -7 -48 -26z"/>
<path d="M2505 4090 c-6 -10 31 -49 47 -50 16 0 16 18 0 32 -28 24 -40 29 -47
18z"/>
<path d="M2477 4048 c-5 -16 60 -61 68 -47 6 9 -41 59 -55 59 -4 0 -10 -6 -13
-12z"/>
<path d="M856 3259 c-14 -48 -37 -190 -34 -214 6 -52 28 -42 28 13 0 27 7 82
16 122 12 52 13 75 6 82 -8 8 -13 7 -16 -3z"/>
<path d="M767 3206 c-3 -8 -9 -46 -13 -85 -6 -62 -4 -71 10 -71 12 0 16 10 16
43 0 23 4 56 8 72 9 32 6 55 -8 55 -4 0 -10 -6 -13 -14z"/>
<path d="M3025 2609 c-12 -38 -9 -209 4 -222 9 -9 10 0 6 43 -3 30 -2 86 3
123 8 66 0 99 -13 56z"/>
<path d="M2948 2475 c2 -36 7 -65 11 -65 4 0 6 21 5 48 -3 75 -4 82 -11 82 -5
0 -6 -29 -5 -65z"/>
<path d="M4490 2523 c0 -13 -3 -14 -12 -5 -15 15 -28 15 -28 0 0 -17 50 -59
62 -52 5 3 7 13 4 21 -3 8 -1 11 4 8 14 -9 12 19 -2 33 -17 17 -28 15 -28 -5z"/>
<path d="M4405 2511 c-5 -8 9 -29 36 -57 58 -60 73 -40 16 21 -31 33 -46 44
-52 36z"/>
<path d="M630 1629 c0 -41 98 -95 196 -108 47 -7 54 -6 52 8 -2 11 -30 23 -90
37 -86 21 -138 45 -138 64 0 6 -4 10 -10 10 -5 0 -10 -5 -10 -11z"/>
<path d="M5340 1548 l-45 -23 3 -64 c2 -35 8 -74 15 -85 7 -14 14 -133 18
-345 5 -178 10 -330 13 -338 14 -35 7 -259 -10 -363 -14 -85 -15 -113 -6 -122
19 -19 49 17 61 72 6 26 11 109 12 184 1 94 5 134 12 129 19 -11 270 -214 310
-249 62 -57 132 -39 96 24 -8 14 -23 30 -34 36 -21 12 -212 137 -287 189 -26
17 -47 35 -47 38 -1 3 45 37 102 75 108 73 177 134 177 156 0 25 -31 58 -54
58 -33 0 -73 -35 -86 -75 -6 -19 -15 -35 -18 -35 -4 0 -38 -27 -77 -60 -38
-33 -72 -60 -75 -60 -3 0 -6 19 -7 43 0 23 -4 169 -7 324 -5 183 -3 296 3 320
6 22 28 55 51 78 62 61 50 93 -42 110 -24 4 -46 -1 -78 -17z"/>
<path d="M610 1517 c0 -16 76 -47 98 -40 23 8 12 20 -29 32 -23 7 -47 15 -55
18 -8 3 -14 -1 -14 -10z"/>
<path d="M604 1448 c-8 -12 22 -38 43 -38 21 0 15 16 -11 34 -18 11 -27 13
-32 4z"/>
<path d="M558 1365 c-2 -3 -101 -6 -220 -8 -232 -3 -236 -4 -258 -58 -20 -48
-1 -75 77 -111 86 -40 131 -40 248 1 227 80 239 83 409 87 87 2 167 6 177 9
48 16 -6 49 -96 59 -33 4 -76 8 -95 11 -69 7 -237 14 -242 10z"/>
<path d="M1820 1296 c-20 -25 -7 -60 32 -85 32 -20 41 -35 59 -95 12 -39 41
-115 65 -168 57 -127 79 -188 121 -338 35 -122 47 -150 64 -150 14 0 37 43 44
80 3 19 18 55 32 80 15 25 54 98 88 162 44 85 80 139 133 197 59 66 73 86 70
108 -2 23 -8 29 -35 31 -30 3 -36 -2 -80 -70 -50 -75 -94 -153 -184 -320 -29
-54 -55 -98 -58 -98 -9 0 -59 190 -70 265 -5 33 -12 98 -16 145 -4 47 -15 103
-25 125 -24 55 -85 109 -144 129 -61 20 -80 20 -96 2z"/>
<path d="M903 1240 c-18 -10 -41 -37 -52 -58 -22 -44 -151 -217 -208 -279 -21
-23 -76 -104 -122 -180 -87 -144 -150 -246 -185 -300 -12 -18 -33 -38 -49 -44
-39 -16 -89 -76 -85 -102 2 -14 17 -29 41 -40 35 -18 45 -18 195 -3 253 24
462 35 801 40 47 0 86 6 88 11 3 11 -80 65 -102 65 -8 0 -17 5 -20 10 -8 13
-186 12 -285 -1 -41 -5 -127 -13 -190 -18 -63 -5 -177 -15 -252 -22 -76 -7
-140 -10 -143 -7 -3 3 4 24 15 46 27 52 216 341 269 412 49 65 75 102 134 190
62 92 145 187 185 212 38 23 55 56 40 76 -15 17 -38 15 -75 -8z"/>
<path d="M4875 998 c-46 -16 -55 -27 -50 -62 20 -138 25 -201 21 -266 -3 -41
-8 -125 -11 -186 l-7 -110 26 -17 c30 -20 56 -22 57 -4 1 6 2 91 3 187 1 125
5 188 16 220 17 52 92 133 118 128 24 -4 60 -83 67 -148 3 -30 13 -104 21
-164 9 -60 13 -124 10 -141 -8 -39 15 -65 38 -46 23 19 28 76 16 204 -23 270
-44 347 -99 380 -32 19 -112 23 -141 7 -16 -8 -22 -6 -32 10 -14 23 -12 22
-53 8z"/>
<path d="M2825 993 c-173 -9 -293 -112 -315 -271 -20 -149 27 -282 120 -336
54 -32 164 -28 258 8 79 30 107 57 91 88 -15 28 -61 23 -97 -12 -25 -24 -42
-30 -79 -32 -133 -5 -143 5 -169 163 -6 36 -6 37 43 53 27 9 87 23 133 31 107
19 189 44 214 64 49 42 38 116 -28 187 -45 48 -83 61 -171 57z m64 -100 c47
-27 35 -46 -39 -65 -36 -10 -91 -25 -123 -34 -31 -10 -60 -14 -63 -11 -9 9 75
107 100 117 35 15 93 11 125 -7z"/>
<path d="M1519 925 c-62 -15 -136 -54 -170 -89 -35 -36 -91 -168 -93 -217 -2
-78 159 -260 266 -300 88 -33 327 -31 316 2 -2 5 -45 11 -96 13 -100 5 -107 8
-205 100 -38 36 -80 130 -85 194 l-4 52 43 1 c24 1 126 1 227 0 207 -2 207 -2
178 73 -25 64 -105 150 -158 166 -54 17 -162 20 -219 5z m249 -130 c24 -15 41
-33 39 -39 -2 -7 -26 -10 -58 -9 -186 7 -289 16 -289 24 0 11 55 37 105 50 17
5 59 7 95 5 52 -2 75 -9 108 -31z"/>
<path d="M4441 874 c-73 -19 -111 -39 -160 -81 -50 -42 -76 -90 -96 -175 -13
-56 -12 -70 5 -160 11 -55 29 -120 42 -145 20 -39 32 -51 86 -76 65 -30 155
-44 215 -33 19 3 56 21 83 38 183 120 238 348 117 485 -40 45 -70 52 -83 18
-11 -28 -2 -53 31 -88 22 -24 50 -104 51 -146 2 -60 -24 -122 -75 -177 -70
-77 -113 -97 -198 -92 -122 7 -189 76 -189 195 0 131 45 252 101 272 18 6 42
11 54 11 40 0 124 30 155 56 37 32 38 53 2 87 -32 31 -60 33 -141 11z"/>
</g>
</svg>
